<svg width="375" height="148" viewBox="0 0 375 148" fill="none" xmlns="http://www.w3.org/2000/svg">
<g filter="url(#filter0_f_365_3805)">
<path d="M102.617 79.8746C102.617 79.9016 102.63 79.9286 102.657 79.9556C103.521 82.4662 104.668 83.7215 106.099 83.7215C106.936 83.6675 108.286 83.0736 110.148 81.9397C111.822 80.8329 113.078 80.2795 113.914 80.2795C114.319 80.2795 114.724 80.4145 115.129 80.6844C115.831 81.2244 116.182 81.8453 116.182 82.5472C116.074 84.0319 115.008 85.5707 112.983 87.1634C110.553 88.9181 107.989 89.7955 105.289 89.7955C103.508 89.7955 101.969 89.3366 100.673 88.4187C97.6494 86.2591 96.1377 81.8723 96.1377 75.2583C96.1377 73.9625 96.1917 72.5992 96.2997 71.1684C96.5156 68.4149 96.7316 66.7276 96.9475 66.1067C95.1658 67.0246 93.3166 67.4835 91.3999 67.4835C91.184 67.4835 90.86 67.4565 90.4281 67.4025C90.2121 67.3755 90.0501 67.362 89.9422 67.362C89.8612 67.416 89.5507 67.5915 89.0108 67.8885C87.2021 68.9413 85.7443 69.4677 84.6375 69.4677C84.3135 69.4677 83.9761 69.3867 83.6251 69.2247C82.7883 68.7928 82.3698 68.1719 82.3698 67.362C82.3698 67.2271 82.3833 67.0921 82.4103 66.9571C82.4913 66.4172 82.9098 65.8503 83.6656 65.2564C83.9626 65.0404 84.1786 64.8649 84.3135 64.73C82.6398 63.1912 81.7894 61.0855 81.7624 58.413C81.7624 57.2521 82.0459 56.1723 82.6128 55.1735C83.8006 53.0948 85.6903 52.0555 88.2819 52.0555C89.6047 52.0555 90.86 52.4064 92.0478 53.1083C93.9915 54.3231 94.9634 55.9968 94.9634 58.1295C94.9634 59.3983 94.7744 60.5456 94.3965 61.5715C94.8014 61.3825 95.5033 60.9371 96.5021 60.2352C98.5538 58.8314 99.9981 58.1295 100.835 58.1295C101.942 58.1565 102.873 58.4939 103.629 59.1418C104.034 59.4928 104.25 59.8842 104.277 60.3162C104.277 60.4781 104.236 60.7211 104.155 61.045C104.074 61.288 104.034 61.4635 104.034 61.5715C102.63 66.3227 101.928 70.3991 101.928 73.8005C101.928 75.2853 102.104 76.959 102.455 78.8217C102.536 79.3077 102.59 79.6586 102.617 79.8746ZM89.8612 58.6559C89.8612 58.4669 89.8342 58.2645 89.7802 58.0485C89.5372 57.3736 89.0378 57.0362 88.2819 57.0362C88.1199 57.0362 87.9445 57.0632 87.7555 57.1172C86.9996 57.3601 86.6217 57.873 86.6217 58.6559C86.6487 59.9247 87.3236 60.8966 88.6464 61.5715C89.4292 60.7346 89.8342 59.7627 89.8612 58.6559Z" fill="#1B1B1B"/>
<path d="M111.282 76.9995C111.282 76.0817 111.336 75.1098 111.444 74.084C112.011 69.4407 113.469 65.3239 115.818 61.7334C118.679 57.3601 122.121 55.1735 126.143 55.1735C127.871 55.1735 129.383 55.5109 130.679 56.1858C131.219 55.5379 131.961 55.2005 132.906 55.1735C133.446 55.1735 133.783 55.214 133.918 55.2949C135.079 55.6729 135.659 56.8202 135.659 58.7369C135.659 59.5198 135.524 61.207 135.255 63.7986C134.418 71.4654 133.999 76.2301 133.999 78.0929C133.999 79.3347 134.256 80.4955 134.769 81.5753C135.524 83.195 136.523 84.0049 137.765 84.0049C138.008 84.0049 138.265 83.9779 138.535 83.9239C139.344 83.762 140.505 83.1411 142.017 82.0612C143.502 80.9814 144.69 80.4415 145.58 80.4415C145.931 80.4415 146.296 80.563 146.674 80.8059C147.457 81.3458 147.848 82.0612 147.848 82.9521C147.767 84.3559 146.701 85.8136 144.649 87.3254C142.192 89.0531 139.587 89.917 136.834 89.917C133.432 89.89 130.922 88.1758 129.302 84.7743C128.924 85.2332 128.492 85.6922 128.006 86.1511C125.334 88.6617 122.621 89.917 119.867 89.917C118.139 89.917 116.641 89.4716 115.372 88.5807C112.646 86.583 111.282 82.7226 111.282 76.9995ZM129.099 63.6771C129.099 63.6771 129.194 62.7593 129.383 60.9236C128.789 60.6266 128.168 60.4781 127.52 60.4781C127.034 60.4781 126.535 60.5456 126.022 60.6806C123.511 61.3825 121.392 63.7041 119.664 67.6455C118.126 71.1819 117.356 74.7319 117.356 78.2953C117.356 78.4303 117.356 78.5653 117.356 78.7003C117.437 81.9937 118.274 83.6405 119.867 83.6405C120.704 83.6135 121.73 83.1546 122.944 82.2637C124.186 81.3728 125.091 80.536 125.658 79.7531C126.008 79.2402 126.481 77.7419 127.075 75.2583C128.155 70.642 128.83 66.7816 129.099 63.6771Z" fill="#1B1B1B"/>
<path d="M161.17 27.7593C161.44 27.7593 161.724 27.7728 162.021 27.7998C166.691 28.0967 169.026 30.8098 169.026 35.939C169.026 41.4461 166.678 47.5742 161.98 54.3231C158.903 58.7234 155.65 62.3273 152.221 65.1349C152.437 66.8626 152.707 68.4689 153.031 69.9536C154.948 79.1322 158.39 83.7215 163.357 83.7215C165.274 83.7215 167.096 83.1681 168.824 82.0612C171.955 80.0365 174.452 76.5271 176.315 71.5329C174.992 71.3439 173.777 70.9525 172.671 70.3586C169.809 68.7928 168.378 66.2552 168.378 62.7458C168.378 60.964 169.026 59.4118 170.322 58.089C171.78 56.6042 173.494 55.8619 175.465 55.8619C177.408 55.8619 179.082 56.4018 180.486 57.4816C182.376 58.9664 183.32 61.018 183.32 63.6366C183.293 64.7165 183.28 65.2699 183.28 65.2969C183.739 65.0809 184.306 64.7704 184.981 64.3655C186.034 63.6906 186.911 63.3532 187.613 63.3532C187.991 63.3532 188.369 63.4612 188.747 63.6771C189.637 64.163 190.083 64.9324 190.083 65.9853C190.083 66.6062 189.853 67.2001 189.394 67.767C188.153 69.3057 185.737 70.4531 182.146 71.2089C180.931 75.6092 179.015 79.4561 176.396 82.7496C172.698 87.3929 168.513 89.7145 163.843 89.7145C157.148 89.6875 152.248 85.5167 149.144 77.202C147.011 71.4249 145.945 64.5545 145.945 56.5907C145.945 56.1318 145.972 55.5514 146.026 54.8495C146.404 49.1804 147.47 43.9702 149.225 39.219C152.059 31.5792 156.041 27.7593 161.17 27.7593ZM152.505 51.448C152.208 53.6347 152.019 55.7404 151.938 57.7651C153.639 56.0643 155.353 54.0126 157.081 51.61C161.373 45.644 163.519 40.5823 163.519 36.4249C163.519 36.2089 163.465 35.9525 163.357 35.6555C162.925 34.4677 162.223 33.8738 161.251 33.8738C159.065 33.9008 157.229 35.3586 155.744 38.2471C154.395 40.9467 153.315 45.347 152.505 51.448ZM176.032 61.4905C175.762 61.4905 175.478 61.5445 175.181 61.6524C174.317 61.9764 173.885 62.5703 173.885 63.4342C173.912 64.9729 175.208 65.8638 177.773 66.1067C177.773 65.9178 177.786 65.6343 177.813 65.2564C177.867 64.6895 177.894 64.2845 177.894 64.0416C177.894 63.9066 177.881 63.7581 177.854 63.5961C177.719 62.1924 177.111 61.4905 176.032 61.4905Z" fill="#1B1B1B"/>
<path d="M199.639 27.7593C199.909 27.7593 200.193 27.7728 200.49 27.7998C205.16 28.0967 207.495 30.8098 207.495 35.939C207.495 41.4461 205.147 47.5742 200.449 54.3231C197.372 58.7234 194.119 62.3273 190.69 65.1349C190.906 66.8626 191.176 68.4689 191.5 69.9536C193.417 79.1322 196.859 83.7215 201.826 83.7215C203.743 83.7215 205.565 83.1681 207.293 82.0612C210.424 80.0365 212.921 76.5271 214.784 71.5329C213.461 71.3439 212.246 70.9525 211.14 70.3586C208.278 68.7928 206.847 66.2552 206.847 62.7458C206.847 60.964 207.495 59.4118 208.791 58.089C210.249 56.6042 211.963 55.8619 213.934 55.8619C215.877 55.8619 217.551 56.4018 218.955 57.4816C220.845 58.9664 221.789 61.018 221.789 63.6366C221.762 64.7165 221.749 65.2699 221.749 65.2969C222.208 65.0809 222.775 64.7704 223.45 64.3655C224.502 63.6906 225.38 63.3532 226.082 63.3532C226.46 63.3532 226.838 63.4612 227.216 63.6771C228.106 64.163 228.552 64.9324 228.552 65.9853C228.552 66.6062 228.322 67.2001 227.863 67.767C226.622 69.3057 224.206 70.4531 220.615 71.2089C219.4 75.6092 217.484 79.4561 214.865 82.7496C211.167 87.3929 206.982 89.7145 202.312 89.7145C195.617 89.6875 190.717 85.5167 187.613 77.202C185.48 71.4249 184.414 64.5545 184.414 56.5907C184.414 56.1318 184.441 55.5514 184.495 54.8495C184.873 49.1804 185.939 43.9702 187.694 39.219C190.528 31.5792 194.51 27.7593 199.639 27.7593ZM190.974 51.448C190.677 53.6347 190.488 55.7404 190.407 57.7651C192.108 56.0643 193.822 54.0126 195.55 51.61C199.842 45.644 201.988 40.5823 201.988 36.4249C201.988 36.2089 201.934 35.9525 201.826 35.6555C201.394 34.4677 200.692 33.8738 199.72 33.8738C197.534 33.9008 195.698 35.3586 194.213 38.2471C192.863 40.9467 191.784 45.347 190.974 51.448ZM214.501 61.4905C214.231 61.4905 213.947 61.5445 213.65 61.6524C212.786 61.9764 212.354 62.5703 212.354 63.4342C212.381 64.9729 213.677 65.8638 216.242 66.1067C216.242 65.9178 216.255 65.6343 216.282 65.2564C216.336 64.6895 216.363 64.2845 216.363 64.0416C216.363 63.9066 216.35 63.7581 216.323 63.5961C216.188 62.1924 215.58 61.4905 214.501 61.4905Z" fill="#1B1B1B"/>
<path d="M240.7 89.7145C234.194 89.4446 229.375 85.4762 226.244 77.8094C223.922 72.0323 222.761 64.9594 222.761 56.5907C222.761 56.1588 222.788 55.6054 222.842 54.9305C223.22 49.2344 224.273 44.0107 226.001 39.2595C228.808 31.5927 232.777 27.7593 237.906 27.7593C238.176 27.7593 238.459 27.7728 238.756 27.7998C243.426 28.0967 245.762 30.8098 245.762 35.939C245.762 41.5271 243.359 47.7361 238.554 54.5661C235.503 58.9124 232.304 62.4353 228.957 65.1349C229.875 70.2641 230.887 74.111 231.994 76.6756C234.045 81.4268 237.096 83.8025 241.145 83.8025C241.415 83.8025 241.699 83.7755 241.996 83.7215C242.887 83.5595 244.128 82.9116 245.721 81.7778C247.26 80.7249 248.461 80.1985 249.325 80.1985C249.703 80.1985 250.067 80.32 250.418 80.563C251.201 81.1029 251.593 81.8318 251.593 82.7496C251.539 84.1534 250.54 85.5977 248.596 87.0824C246.167 88.8372 243.534 89.7145 240.7 89.7145ZM237.946 33.8738C236.354 33.9008 234.95 34.5892 233.735 35.939C230.657 39.4214 228.97 46.6968 228.673 57.7651C230.293 56.1183 231.913 54.1746 233.533 51.934C238.014 45.8059 240.254 40.6362 240.254 36.4249C240.254 36.2089 240.2 35.9525 240.093 35.6555C239.661 34.4677 238.945 33.8738 237.946 33.8738Z" fill="#1B1B1B"/>
<path d="M245.924 77.3235C245.924 76.4056 245.978 75.4338 246.086 74.4079C246.652 69.7917 248.11 65.6883 250.459 62.0979C253.32 57.6976 256.762 55.4974 260.785 55.4974C261.865 55.4974 262.904 55.6324 263.903 55.9023C267.466 56.9282 269.248 59.4388 269.248 63.4342C269.248 63.7311 269.234 64.0416 269.207 64.3655C268.937 67.9829 267.318 71.02 264.348 73.4766C261.433 75.9062 258.045 77.121 254.184 77.121C253.455 77.121 252.74 77.0535 252.038 76.9185C251.984 77.3235 251.957 77.8904 251.957 78.6193C251.957 80.185 252.227 81.3998 252.767 82.2637C253.496 83.3705 254.994 84.0184 257.262 84.2074C258.261 84.2074 259.246 84.0994 260.218 83.8834C261.919 83.4785 263.93 82.5202 266.251 81.0084C267.763 80.0095 268.829 79.5101 269.45 79.5101C269.801 79.5101 270.166 79.6181 270.544 79.8341C271.408 80.347 271.84 81.0894 271.84 82.0612C271.84 82.3852 271.772 82.7361 271.637 83.1141C270.908 84.8688 268.721 86.529 265.077 88.0948C261.703 89.5525 258.733 90.2814 256.168 90.2814C255.197 90.2814 254.292 90.2004 253.455 90.0385C248.434 89.0126 245.924 84.7743 245.924 77.3235ZM258.922 61.8549C256.465 63.5016 254.535 66.6332 253.131 71.2494C253.806 71.4114 254.454 71.4924 255.075 71.4924C257.316 71.4924 259.273 70.804 260.947 69.4272C262.809 67.9155 263.741 66.1202 263.741 64.0416C263.741 61.9629 263.079 60.9101 261.757 60.8831C260.812 60.9101 259.867 61.234 258.922 61.8549Z" fill="#1B1B1B"/>
<path d="M289.693 73.0132C289.693 74.6035 288.403 75.8927 286.813 75.8927C285.223 75.8927 283.934 74.6035 283.934 73.0132C283.934 71.4228 285.223 70.1336 286.813 70.1336C288.403 70.1336 289.693 71.4228 289.693 73.0132Z" fill="#1B1B1B"/>
<path d="M290.845 71.2854C290.845 70.6493 291.36 70.1336 291.996 70.1336H295.452C296.088 70.1336 296.604 70.6493 296.604 71.2854V74.7409C296.604 75.377 296.088 75.8927 295.452 75.8927H291.996C291.36 75.8927 290.845 75.377 290.845 74.7409V71.2854Z" fill="#1B1B1B"/>
<path d="M321.944 72.4372C321.944 71.8011 322.459 71.2854 323.095 71.2854H326.551C327.187 71.2854 327.703 71.8011 327.703 72.4372V73.5891C327.703 74.2252 327.187 74.7409 326.551 74.7409H323.095C322.459 74.7409 321.944 74.2252 321.944 73.5891V72.4372Z" fill="#1B1B1B"/>
<path d="M333.462 72.4372C333.462 71.8011 333.977 71.2854 334.614 71.2854C335.25 71.2854 335.765 71.8011 335.765 72.4372V73.5891C335.765 74.2252 335.25 74.7409 334.614 74.7409C333.977 74.7409 333.462 74.2252 333.462 73.5891V72.4372Z" fill="#1B1B1B"/>
<path d="M334.614 73.0132C334.614 72.6747 334.844 72.3797 335.172 72.2976L338.433 71.4823C338.906 71.3642 339.401 71.5558 339.671 71.9608L339.947 72.3742C340.205 72.7611 340.205 73.2652 339.947 73.6521L339.671 74.0655C339.401 74.4705 338.906 74.6621 338.433 74.544L335.172 73.7287C334.844 73.6467 334.614 73.3516 334.614 73.0132Z" fill="#1B1B1B"/>
<path d="M328.855 72.4372C328.855 71.8011 329.37 71.2854 330.006 71.2854H331.158C331.794 71.2854 332.31 71.8011 332.31 72.4372V73.5891C332.31 74.2252 331.794 74.7409 331.158 74.7409H330.006C329.37 74.7409 328.855 74.2252 328.855 73.5891V72.4372Z" fill="#1B1B1B"/>
<path d="M297.755 70.1336C297.755 69.4975 298.271 68.9818 298.907 68.9818H319.64C320.276 68.9818 320.792 69.4975 320.792 70.1336V75.8927C320.792 76.5288 320.276 77.0445 319.64 77.0445H298.907C298.271 77.0445 297.755 76.5288 297.755 75.8927V70.1336Z" fill="#1B1B1B"/>
<path fill-rule="evenodd" clip-rule="evenodd" d="M276.745 73.7687C279.658 71.8269 282.983 70.59 286.456 70.1558L287.17 75.8704C284.584 76.1937 282.109 77.1147 279.94 78.5605L270.112 85.1072L263.777 82.8036L276.745 73.7687Z" fill="#1B1B1B"/>
<path fill-rule="evenodd" clip-rule="evenodd" d="M62.7844 70.1336C68.4143 70.1336 73.9712 68.8595 79.0387 66.4069L88.5978 61.7805L91.1067 66.9644L81.5476 71.5908C75.6979 74.422 69.2833 75.8927 62.7844 75.8927H42.6276C41.0373 75.8927 39.748 74.6035 39.748 73.0131C39.748 71.4228 41.0373 70.1336 42.6276 70.1336H62.7844Z" fill="#1B1B1B"/>
</g>
<g filter="url(#filter1_dii_365_3805)">
<path d="M97.8686 74.1153C97.8686 74.1423 97.8821 74.1693 97.9091 74.1963C98.773 76.7069 99.9203 77.9622 101.351 77.9622C102.188 77.9082 103.538 77.3143 105.4 76.1805C107.074 75.0736 108.329 74.5202 109.166 74.5202C109.571 74.5202 109.976 74.6552 110.381 74.9252C111.083 75.4651 111.434 76.086 111.434 76.7879C111.326 78.2726 110.26 79.8114 108.235 81.4041C105.805 83.1589 103.241 84.0362 100.541 84.0362C98.7595 84.0362 97.2207 83.5773 95.9249 82.6594C92.9014 80.4998 91.3896 76.113 91.3896 69.499C91.3896 68.2032 91.4436 66.8399 91.5516 65.4092C91.7676 62.6556 91.9835 60.9684 92.1995 60.3475C90.4178 61.2653 88.5686 61.7242 86.6519 61.7242C86.4359 61.7242 86.112 61.6972 85.68 61.6433C85.4641 61.6163 85.3021 61.6028 85.1941 61.6028C85.1131 61.6568 84.8027 61.8322 84.2628 62.1292C82.454 63.182 80.9963 63.7084 79.8894 63.7084C79.5655 63.7084 79.228 63.6274 78.8771 63.4655C78.0402 63.0335 77.6218 62.4126 77.6218 61.6028C77.6218 61.4678 77.6353 61.3328 77.6623 61.1978C77.7433 60.6579 78.1617 60.091 78.9176 59.4971C79.2145 59.2811 79.4305 59.1057 79.5655 58.9707C77.8918 57.4319 77.0414 55.3263 77.0144 52.6537C77.0144 51.4929 77.2978 50.413 77.8648 49.4142C79.0526 47.3355 80.9423 46.2962 83.5339 46.2962C84.8567 46.2962 86.112 46.6471 87.2998 47.349C89.2435 48.5638 90.2153 50.2376 90.2153 52.3702C90.2153 53.639 90.0263 54.7863 89.6484 55.8122C90.0533 55.6232 90.7552 55.1778 91.7541 54.4759C93.8058 53.0721 95.25 52.3702 96.0869 52.3702C97.1937 52.3972 98.1251 52.7347 98.881 53.3826C99.2859 53.7335 99.5019 54.1249 99.5288 54.5569C99.5288 54.7188 99.4884 54.9618 99.4074 55.2858C99.3264 55.5287 99.2859 55.7042 99.2859 55.8122C97.8821 60.5634 97.1802 64.6398 97.1802 68.0413C97.1802 69.526 97.3557 71.1998 97.7066 73.0625C97.7876 73.5484 97.8416 73.8993 97.8686 74.1153ZM85.1131 52.8966C85.1131 52.7077 85.0861 52.5052 85.0321 52.2892C84.7892 51.6143 84.2897 51.2769 83.5339 51.2769C83.3719 51.2769 83.1964 51.3039 83.0075 51.3579C82.2516 51.6008 81.8736 52.1138 81.8736 52.8966C81.9006 54.1654 82.5755 55.1373 83.8983 55.8122C84.6812 54.9753 85.0861 54.0035 85.1131 52.8966Z" fill="url(#paint0_linear_365_3805)"/>
<path d="M106.534 71.2402C106.534 70.3224 106.588 69.3505 106.696 68.3247C107.263 63.6814 108.721 59.5646 111.07 55.9742C113.931 51.6008 117.373 49.4142 121.395 49.4142C123.123 49.4142 124.635 49.7516 125.931 50.4265C126.471 49.7786 127.213 49.4412 128.158 49.4142C128.698 49.4142 129.035 49.4547 129.17 49.5357C130.331 49.9136 130.911 51.0609 130.911 52.9776C130.911 53.7605 130.776 55.4477 130.506 58.0393C129.67 65.7061 129.251 70.4709 129.251 72.3336C129.251 73.5754 129.508 74.7362 130.021 75.816C130.776 77.4358 131.775 78.2456 133.017 78.2456C133.26 78.2456 133.516 78.2186 133.786 78.1647C134.596 78.0027 135.757 77.3818 137.269 76.3019C138.754 75.2221 139.941 74.6822 140.832 74.6822C141.183 74.6822 141.548 74.8037 141.926 75.0466C142.709 75.5866 143.1 76.302 143.1 77.1928C143.019 78.5966 141.953 80.0544 139.901 81.5661C137.444 83.2938 134.839 84.1577 132.086 84.1577C128.684 84.1307 126.174 82.4165 124.554 79.015C124.176 79.474 123.744 79.9329 123.258 80.3918C120.586 82.9024 117.872 84.1577 115.119 84.1577C113.391 84.1577 111.893 83.7123 110.624 82.8214C107.898 80.8237 106.534 76.9633 106.534 71.2402ZM124.351 57.9178C124.351 57.9178 124.446 57 124.635 55.1643C124.041 54.8673 123.42 54.7188 122.772 54.7188C122.286 54.7188 121.787 54.7863 121.274 54.9213C118.763 55.6232 116.644 57.9448 114.916 61.8862C113.378 65.4227 112.608 68.9726 112.608 72.536C112.608 72.671 112.608 72.806 112.608 72.941C112.689 76.2345 113.526 77.8812 115.119 77.8812C115.956 77.8542 116.982 77.3953 118.196 76.5044C119.438 75.6136 120.343 74.7767 120.909 73.9938C121.26 73.4809 121.733 71.9826 122.327 69.499C123.407 64.8827 124.081 61.0224 124.351 57.9178Z" fill="url(#paint1_linear_365_3805)"/>
<path d="M156.422 22C156.692 22 156.976 22.0135 157.273 22.0405C161.943 22.3374 164.278 25.0505 164.278 30.1797C164.278 35.6868 161.93 41.8149 157.232 48.5638C154.155 52.9641 150.902 56.5681 147.473 59.3756C147.689 61.1033 147.959 62.7096 148.283 64.1944C150.2 73.3729 153.642 77.9622 158.609 77.9622C160.526 77.9622 162.348 77.4088 164.076 76.3019C167.207 74.2773 169.704 70.7678 171.567 65.7736C170.244 65.5846 169.029 65.1932 167.923 64.5993C165.061 63.0335 163.63 60.4959 163.63 56.9865C163.63 55.2048 164.278 53.6525 165.574 52.3297C167.032 50.845 168.746 50.1026 170.717 50.1026C172.66 50.1026 174.334 50.6425 175.738 51.7223C177.628 53.2071 178.572 55.2588 178.572 57.8773C178.545 58.9572 178.532 59.5106 178.532 59.5376C178.991 59.3216 179.558 59.0112 180.233 58.6062C181.285 57.9313 182.163 57.5939 182.865 57.5939C183.243 57.5939 183.621 57.7019 183.999 57.9178C184.889 58.4038 185.335 59.1731 185.335 60.226C185.335 60.8469 185.105 61.4408 184.646 62.0077C183.405 63.5465 180.989 64.6938 177.398 65.4497C176.183 69.85 174.267 73.6969 171.648 76.9903C167.95 81.6336 163.765 83.9552 159.095 83.9552C152.4 83.9283 147.5 79.7574 144.396 71.4427C142.263 65.6656 141.197 58.7952 141.197 50.8315C141.197 50.3725 141.224 49.7921 141.278 49.0902C141.656 43.4211 142.722 38.2109 144.477 33.4597C147.311 25.8199 151.293 22 156.422 22ZM147.757 45.6888C147.46 47.8754 147.271 49.9811 147.19 52.0058C148.891 50.305 150.605 48.2534 152.333 45.8507C156.625 39.8847 158.771 34.823 158.771 30.6656C158.771 30.4497 158.717 30.1932 158.609 29.8963C158.177 28.7084 157.475 28.1145 156.503 28.1145C154.317 28.1415 152.481 29.5993 150.996 32.4878C149.646 35.1874 148.567 39.5877 147.757 45.6888ZM171.284 55.7312C171.014 55.7312 170.73 55.7852 170.433 55.8932C169.569 56.2171 169.137 56.811 169.137 57.6749C169.164 59.2136 170.46 60.1045 173.025 60.3475C173.025 60.1585 173.038 59.875 173.065 59.4971C173.119 58.9302 173.146 58.5252 173.146 58.2823C173.146 58.1473 173.133 57.9988 173.106 57.8369C172.971 56.4331 172.363 55.7312 171.284 55.7312Z" fill="url(#paint2_linear_365_3805)"/>
<path d="M194.891 22C195.161 22 195.445 22.0135 195.742 22.0405C200.412 22.3374 202.747 25.0505 202.747 30.1797C202.747 35.6868 200.398 41.8149 195.701 48.5638C192.624 52.9641 189.371 56.5681 185.942 59.3756C186.158 61.1033 186.428 62.7096 186.752 64.1944C188.669 73.3729 192.111 77.9622 197.078 77.9622C198.995 77.9622 200.817 77.4088 202.545 76.3019C205.676 74.2773 208.173 70.7678 210.036 65.7736C208.713 65.5846 207.498 65.1932 206.392 64.5993C203.53 63.0335 202.099 60.4959 202.099 56.9865C202.099 55.2048 202.747 53.6525 204.043 52.3297C205.501 50.845 207.215 50.1026 209.186 50.1026C211.129 50.1026 212.803 50.6425 214.207 51.7223C216.096 53.2071 217.041 55.2588 217.041 57.8773C217.014 58.9572 217.001 59.5106 217.001 59.5376C217.46 59.3216 218.027 59.0112 218.702 58.6062C219.754 57.9313 220.632 57.5939 221.334 57.5939C221.712 57.5939 222.09 57.7019 222.467 57.9178C223.358 58.4038 223.804 59.1731 223.804 60.226C223.804 60.8469 223.574 61.4408 223.115 62.0077C221.874 63.5465 219.457 64.6938 215.867 65.4497C214.652 69.85 212.736 73.6969 210.117 76.9903C206.419 81.6336 202.234 83.9552 197.564 83.9552C190.869 83.9283 185.969 79.7574 182.865 71.4427C180.732 65.6656 179.666 58.7952 179.666 50.8315C179.666 50.3725 179.693 49.7921 179.747 49.0902C180.125 43.4211 181.191 38.2109 182.946 33.4597C185.78 25.8199 189.762 22 194.891 22ZM186.226 45.6888C185.929 47.8754 185.74 49.9811 185.659 52.0058C187.36 50.305 189.074 48.2534 190.801 45.8507C195.094 39.8847 197.24 34.823 197.24 30.6656C197.24 30.4497 197.186 30.1932 197.078 29.8963C196.646 28.7084 195.944 28.1145 194.972 28.1145C192.786 28.1415 190.95 29.5993 189.465 32.4878C188.115 35.1874 187.036 39.5877 186.226 45.6888ZM209.752 55.7312C209.483 55.7312 209.199 55.7852 208.902 55.8932C208.038 56.2171 207.606 56.811 207.606 57.6749C207.633 59.2136 208.929 60.1045 211.494 60.3475C211.494 60.1585 211.507 59.875 211.534 59.4971C211.588 58.9302 211.615 58.5252 211.615 58.2823C211.615 58.1473 211.602 57.9988 211.575 57.8369C211.44 56.4331 210.832 55.7312 209.752 55.7312Z" fill="url(#paint3_linear_365_3805)"/>
<path d="M235.952 83.9552C229.446 83.6853 224.627 79.7169 221.496 72.0501C219.174 66.273 218.013 59.2001 218.013 50.8315C218.013 50.3995 218.04 49.8461 218.094 49.1712C218.472 43.4751 219.525 38.2514 221.253 33.5002C224.06 25.8334 228.029 22 233.158 22C233.428 22 233.711 22.0135 234.008 22.0405C238.678 22.3374 241.014 25.0505 241.014 30.1797C241.014 35.7678 238.611 41.9769 233.806 48.8068C230.755 53.1531 227.556 56.676 224.209 59.3756C225.127 64.5048 226.139 68.3517 227.246 70.9163C229.297 75.6675 232.348 78.0432 236.397 78.0432C236.667 78.0432 236.951 78.0162 237.248 77.9622C238.139 77.8002 239.38 77.1523 240.973 76.0185C242.512 74.9657 243.713 74.4392 244.577 74.4392C244.955 74.4392 245.319 74.5607 245.67 74.8037C246.453 75.3436 246.845 76.0725 246.845 76.9903C246.791 78.3941 245.792 79.8384 243.848 81.3232C241.418 83.0779 238.786 83.9552 235.952 83.9552ZM233.198 28.1145C231.606 28.1415 230.202 28.8299 228.987 30.1797C225.909 33.6622 224.222 40.9375 223.925 52.0058C225.545 50.359 227.165 48.4153 228.784 46.1747C233.266 40.0467 235.506 34.877 235.506 30.6656C235.506 30.4497 235.452 30.1932 235.344 29.8963C234.913 28.7084 234.197 28.1145 233.198 28.1145Z" fill="url(#paint4_linear_365_3805)"/>
<path d="M241.176 71.5642C241.176 70.6463 241.23 69.6745 241.338 68.6487C241.904 64.0324 243.362 59.929 245.711 56.3386C248.572 51.9383 252.014 49.7381 256.037 49.7381C257.117 49.7381 258.156 49.8731 259.155 50.1431C262.718 51.1689 264.5 53.6795 264.5 57.6749C264.5 57.9718 264.486 58.2823 264.459 58.6062C264.189 62.2237 262.57 65.2607 259.6 67.7173C256.685 70.1469 253.297 71.3617 249.436 71.3617C248.707 71.3617 247.992 71.2942 247.29 71.1593C247.236 71.5642 247.209 72.1311 247.209 72.86C247.209 74.4257 247.479 75.6406 248.019 76.5044C248.748 77.6112 250.246 78.2591 252.514 78.4481C253.513 78.4481 254.498 78.3401 255.47 78.1242C257.171 77.7192 259.182 76.7609 261.503 75.2491C263.015 74.2503 264.081 73.7509 264.702 73.7509C265.053 73.7509 265.418 73.8588 265.796 74.0748C266.66 74.5877 267.091 75.3301 267.091 76.3019C267.091 76.6259 267.024 76.9768 266.889 77.3548C266.603 78.0426 266.094 78.7159 265.36 79.3747C266.25 78.7795 262.545 81.3835 260.329 82.3355C256.955 83.7933 253.985 84.5222 251.42 84.5222C250.449 84.5222 249.544 84.4412 248.707 84.2792C243.686 83.2534 241.176 79.015 241.176 71.5642ZM254.174 56.0956C251.717 57.7424 249.787 60.8739 248.383 65.4902C249.058 65.6521 249.706 65.7331 250.327 65.7331C252.568 65.7331 254.525 65.0447 256.199 63.6679C258.061 62.1562 258.993 60.361 258.993 58.2823C258.993 56.2036 258.331 55.1508 257.009 55.1238C256.064 55.1508 255.119 55.4747 254.174 56.0956Z" fill="url(#paint5_linear_365_3805)"/>
<path d="M284.945 67.2539C284.945 68.8442 283.655 70.1334 282.065 70.1334C280.475 70.1334 279.186 68.8442 279.186 67.2539C279.186 65.6635 280.475 64.3743 282.065 64.3743C283.655 64.3743 284.945 65.6635 284.945 67.2539Z" fill="url(#paint6_linear_365_3805)"/>
<path d="M286.096 65.5261C286.096 64.89 286.612 64.3743 287.248 64.3743H290.704C291.34 64.3743 291.856 64.89 291.856 65.5261V68.9816C291.856 69.6177 291.34 70.1334 290.704 70.1334H287.248C286.612 70.1334 286.096 69.6177 286.096 68.9816V65.5261Z" fill="url(#paint7_linear_365_3805)"/>
<path d="M317.196 66.678C317.196 66.0418 317.711 65.5261 318.347 65.5261H321.803C322.439 65.5261 322.955 66.0418 322.955 66.678V67.8298C322.955 68.4659 322.439 68.9816 321.803 68.9816H318.347C317.711 68.9816 317.196 68.4659 317.196 67.8298V66.678Z" fill="url(#paint8_linear_365_3805)"/>
<path d="M328.714 66.678C328.714 66.0418 329.229 65.5261 329.866 65.5261C330.405 65.5261 330.858 65.8974 330.983 66.3985C331.006 66.488 331.017 66.5816 331.017 66.678V67.8298C331.017 67.9261 331.006 68.0197 330.983 68.1092C330.858 68.6103 330.405 68.9816 329.866 68.9816C329.229 68.9816 328.714 68.4659 328.714 67.8298V66.678Z" fill="url(#paint9_linear_365_3805)"/>
<path d="M324.106 66.678C324.106 66.0418 324.622 65.5261 325.258 65.5261H326.41C327.046 65.5261 327.562 66.0418 327.562 66.678V67.8298C327.562 68.4659 327.046 68.9816 326.41 68.9816H325.258C324.622 68.9816 324.106 68.4659 324.106 67.8298V66.678Z" fill="url(#paint10_linear_365_3805)"/>
<path d="M293.007 64.3743C293.007 63.7382 293.523 63.2225 294.159 63.2225H314.892C315.528 63.2225 316.044 63.7382 316.044 64.3743V70.1334C316.044 70.7696 315.528 71.2852 314.892 71.2852H294.159C293.523 71.2852 293.007 70.7696 293.007 70.1334V64.3743Z" fill="url(#paint11_linear_365_3805)"/>
<path fill-rule="evenodd" clip-rule="evenodd" d="M271.997 68.0094C274.91 66.0677 278.234 64.8307 281.708 64.3965L282.422 70.1112C279.836 70.4344 277.36 71.3555 275.192 72.8012L265.36 79.3747L259.029 77.0443L271.997 68.0094Z" fill="url(#paint12_linear_365_3805)"/>
<path fill-rule="evenodd" clip-rule="evenodd" d="M58.0364 64.3743C63.6662 64.3743 69.2231 63.1003 74.2907 60.6477L83.8497 56.0212L86.3586 61.2051L76.7996 65.8315C70.9498 68.6627 64.5352 70.1334 58.0364 70.1334H37.8795C36.2892 70.1334 35 68.8442 35 67.2538C35 65.6635 36.2892 64.3743 37.8795 64.3743H58.0364Z" fill="url(#paint13_linear_365_3805)"/>
<path d="M331.017 66.678V67.8298C331.017 67.9261 331.006 68.0197 330.983 68.1092L333.685 68.7847C334.158 68.9028 334.653 68.7112 334.923 68.3062L335.199 67.8928C335.457 67.5059 335.457 67.0019 335.199 66.615L334.923 66.2015C334.653 65.7965 334.158 65.605 333.685 65.723L330.983 66.3985C331.006 66.488 331.017 66.5816 331.017 66.678Z" fill="url(#paint14_linear_365_3805)"/>
</g>
<defs>
<filter id="filter0_f_365_3805" x="37.748" y="25.7593" width="304.393" height="66.522" filterUnits="userSpaceOnUse" color-interpolation-filters="sRGB">
<feFlood flood-opacity="0" result="BackgroundImageFix"/>
<feBlend mode="normal" in="SourceGraphic" in2="BackgroundImageFix" result="shape"/>
<feGaussianBlur stdDeviation="1" result="effect1_foregroundBlur_365_3805"/>
</filter>
<filter id="filter1_dii_365_3805" x="-7.01059" y="0.994707" width="384.414" height="146.543" filterUnits="userSpaceOnUse" color-interpolation-filters="sRGB">
<feFlood flood-opacity="0" result="BackgroundImageFix"/>
<feColorMatrix in="SourceAlpha" type="matrix" values="0 0 0 0 0 0 0 0 0 0 0 0 0 0 0 0 0 0 127 0" result="hardAlpha"/>
<feOffset dy="21.0053"/>
<feGaussianBlur stdDeviation="21.0053"/>
<feColorMatrix type="matrix" values="0 0 0 0 0.2 0 0 0 0 0.2 0 0 0 0 0.2 0 0 0 0.25 0"/>
<feBlend mode="normal" in2="BackgroundImageFix" result="effect1_dropShadow_365_3805"/>
<feBlend mode="normal" in="SourceGraphic" in2="effect1_dropShadow_365_3805" result="shape"/>
<feColorMatrix in="SourceAlpha" type="matrix" values="0 0 0 0 0 0 0 0 0 0 0 0 0 0 0 0 0 0 127 0" result="hardAlpha"/>
<feOffset dy="7.00176"/>
<feGaussianBlur stdDeviation="3.50088"/>
<feComposite in2="hardAlpha" operator="arithmetic" k2="-1" k3="1"/>
<feColorMatrix type="matrix" values="0 0 0 0 1 0 0 0 0 1 0 0 0 0 1 0 0 0 1 0"/>
<feBlend mode="normal" in2="shape" result="effect2_innerShadow_365_3805"/>
<feColorMatrix in="SourceAlpha" type="matrix" values="0 0 0 0 0 0 0 0 0 0 0 0 0 0 0 0 0 0 127 0" result="hardAlpha"/>
<feOffset dy="-7.00176"/>
<feGaussianBlur stdDeviation="3.50088"/>
<feComposite in2="hardAlpha" operator="arithmetic" k2="-1" k3="1"/>
<feColorMatrix type="matrix" values="0 0 0 0 0.8 0 0 0 0 0.8 0 0 0 0 0.8 0 0 0 1 0"/>
<feBlend mode="normal" in2="effect2_innerShadow_365_3805" result="effect3_innerShadow_365_3805"/>
</filter>
<linearGradient id="paint0_linear_365_3805" x1="185.196" y1="22" x2="185.196" y2="84.5222" gradientUnits="userSpaceOnUse">
<stop stop-color="white"/>
<stop offset="1" stop-color="#D6D6D6"/>
</linearGradient>
<linearGradient id="paint1_linear_365_3805" x1="185.196" y1="22" x2="185.196" y2="84.5222" gradientUnits="userSpaceOnUse">
<stop stop-color="white"/>
<stop offset="1" stop-color="#D6D6D6"/>
</linearGradient>
<linearGradient id="paint2_linear_365_3805" x1="185.196" y1="22" x2="185.196" y2="84.5222" gradientUnits="userSpaceOnUse">
<stop stop-color="white"/>
<stop offset="1" stop-color="#D6D6D6"/>
</linearGradient>
<linearGradient id="paint3_linear_365_3805" x1="185.196" y1="22" x2="185.196" y2="84.5222" gradientUnits="userSpaceOnUse">
<stop stop-color="white"/>
<stop offset="1" stop-color="#D6D6D6"/>
</linearGradient>
<linearGradient id="paint4_linear_365_3805" x1="185.196" y1="22" x2="185.196" y2="84.5222" gradientUnits="userSpaceOnUse">
<stop stop-color="white"/>
<stop offset="1" stop-color="#D6D6D6"/>
</linearGradient>
<linearGradient id="paint5_linear_365_3805" x1="185.196" y1="22" x2="185.196" y2="84.5222" gradientUnits="userSpaceOnUse">
<stop stop-color="white"/>
<stop offset="1" stop-color="#D6D6D6"/>
</linearGradient>
<linearGradient id="paint6_linear_365_3805" x1="185.196" y1="22" x2="185.196" y2="84.5222" gradientUnits="userSpaceOnUse">
<stop stop-color="white"/>
<stop offset="1" stop-color="#D6D6D6"/>
</linearGradient>
<linearGradient id="paint7_linear_365_3805" x1="185.196" y1="22" x2="185.196" y2="84.5222" gradientUnits="userSpaceOnUse">
<stop stop-color="white"/>
<stop offset="1" stop-color="#D6D6D6"/>
</linearGradient>
<linearGradient id="paint8_linear_365_3805" x1="185.196" y1="22" x2="185.196" y2="84.5222" gradientUnits="userSpaceOnUse">
<stop stop-color="white"/>
<stop offset="1" stop-color="#D6D6D6"/>
</linearGradient>
<linearGradient id="paint9_linear_365_3805" x1="185.196" y1="22" x2="185.196" y2="84.5222" gradientUnits="userSpaceOnUse">
<stop stop-color="white"/>
<stop offset="1" stop-color="#D6D6D6"/>
</linearGradient>
<linearGradient id="paint10_linear_365_3805" x1="185.196" y1="22" x2="185.196" y2="84.5222" gradientUnits="userSpaceOnUse">
<stop stop-color="white"/>
<stop offset="1" stop-color="#D6D6D6"/>
</linearGradient>
<linearGradient id="paint11_linear_365_3805" x1="185.196" y1="22" x2="185.196" y2="84.5222" gradientUnits="userSpaceOnUse">
<stop stop-color="white"/>
<stop offset="1" stop-color="#D6D6D6"/>
</linearGradient>
<linearGradient id="paint12_linear_365_3805" x1="185.196" y1="22" x2="185.196" y2="84.5222" gradientUnits="userSpaceOnUse">
<stop stop-color="white"/>
<stop offset="1" stop-color="#D6D6D6"/>
</linearGradient>
<linearGradient id="paint13_linear_365_3805" x1="185.196" y1="22" x2="185.196" y2="84.5222" gradientUnits="userSpaceOnUse">
<stop stop-color="white"/>
<stop offset="1" stop-color="#D6D6D6"/>
</linearGradient>
<linearGradient id="paint14_linear_365_3805" x1="185.196" y1="22" x2="185.196" y2="84.5222" gradientUnits="userSpaceOnUse">
<stop stop-color="white"/>
<stop offset="1" stop-color="#D6D6D6"/>
</linearGradient>
</defs>
</svg>
